<?xml version="1.0" encoding="UTF-8"?>
<svg width="173px" height="173px" viewBox="0 0 173 173" version="1.1" xmlns="http://www.w3.org/2000/svg" xmlns:xlink="http://www.w3.org/1999/xlink">
    <!-- Generator: Sketch 62 (91390) - https://sketch.com -->
    <title>Group 75</title>
    <desc>Created with Sketch.</desc>
    <defs>
        <polygon id="path-1" points="0.0199875 0.31525 12.6126393 0.31525 12.6126393 12.695035 0.0199875 12.695035"></polygon>
        <polygon id="path-3" points="0.01885 0.407511765 12.445875 0.407511765 12.445875 12.5189235 0.01885 12.5189235"></polygon>
    </defs>
    <g id="Page-2" stroke="none" stroke-width="1" fill="none" fill-rule="evenodd">
        <g id="Tabless-Copy-20" transform="translate(-634.000000, -308.000000)">
            <g id="Group-75" transform="translate(634.000000, 308.000000)">
                <path d="M51.3802224,19.6919431 C51.9342952,19.3641706 52.2664262,19.0848657 52.3750526,18.853207 C52.485242,18.6215482 52.4117824,18.1951975 52.1554554,17.5716904 L49.1256387,10.1906477 C48.8833784,9.60246445 48.6411181,9.25579779 48.3972949,9.15146919 C48.1534716,9.0471406 47.7299068,9.10628752 47.1258191,9.32973144 L47,9.02167457 L51.4544635,7 L51.581064,7.30805687 C51.013706,7.60379147 50.6651638,7.88063191 50.5362188,8.13775671 C50.4072738,8.39488152 50.4557259,8.79905213 50.681575,9.34944708 L53.9552149,17.3219589 C54.0310189,17.5059716 54.1193267,17.6374092 54.2217012,17.7154502 C54.3240757,17.7934913 54.4811542,17.8008847 54.6929366,17.7376303 C54.8179742,17.699842 54.9469191,17.6546603 55.0805531,17.5996209 C55.214187,17.5462243 55.4611362,17.4369668 55.8214007,17.2743128 C57.2249474,16.636019 58.1244364,16.083981 58.5190863,15.6173776 C58.9129546,15.1507741 59.1364593,14.3120379 59.1896002,13.102812 L59.590502,12.9204423 L60,16.1472354 L51.506823,20 L51.3802224,19.6919431 Z" id="Fill-1" fill="#FFFFFF" opacity="0.5"></path>
                <path d="M65.3339462,12.5645776 C66.2802714,13.2388744 67.2842491,13.4510216 68.3450558,13.2010192 C69.3828015,12.95496 70.1627579,12.3327142 70.687396,11.3334931 C71.2112105,10.334272 71.2383896,8.92731828 70.7705804,7.1118432 C70.297006,5.27507455 69.5821145,4.03689215 68.6267296,3.39571872 C67.6705211,2.75533395 66.6821919,2.55501654 65.661742,2.79634381 C64.6067006,3.04555759 63.8234497,3.68042181 63.3103422,4.70014782 C62.7980582,5.71987383 62.7708791,7.11894106 63.2296286,8.89577223 C63.6859072,10.6662942 64.387621,11.8894922 65.3339462,12.5645776 M61.8904425,4.62207135 C62.716521,3.37363649 63.9198118,2.5621144 65.5003149,2.18908238 C67.0865833,1.81368441 68.5493105,1.99744014 69.8893202,2.73877227 C71.3413405,3.54240785 72.3000198,4.84210504 72.763711,6.64101843 C73.2339909,8.46674597 73.0025572,10.062976 72.0669389,11.4312859 C71.2276827,12.6529066 70.0375696,13.4462897 68.4974232,13.8098579 C66.8485607,14.2002402 65.3413587,13.9896704 63.978288,13.176571 C62.5913327,12.3476986 61.6779518,11.0771815 61.236498,9.36580835 C60.7728069,7.5676836 60.991063,5.98643793 61.8904425,4.62207135" id="Fill-3" fill="#FFFFFF" opacity="0.5"></path>
                <path d="M82.1940004,7.08916072 L79.8959937,2.47190423 L78.2129465,7.34741938 L82.1940004,7.08916072 Z M75.0213144,12 L75,11.6805129 C75.4428656,11.6012298 75.7657391,11.4128344 75.9701993,11.1153267 C76.1746596,10.8170341 76.5054273,10.0163538 76.9632919,8.7132858 L80.0175646,0.0219794597 L80.3625419,0 L85.3224788,9.48884673 C85.6524571,10.1168313 85.9090191,10.5022568 86.0913756,10.6443383 C86.2729426,10.7864198 86.5689757,10.8719827 86.979475,10.901812 L87,11.2220841 L82.5934478,11.5078171 L82.5721334,11.18833 C83.0757845,11.1106169 83.398658,11.0344737 83.5407539,10.9614705 C83.6828498,10.8876823 83.7460036,10.7251913 83.7294257,10.4739975 C83.7238997,10.3900046 83.6860075,10.2447831 83.615749,10.0359783 C83.5454904,9.82717342 83.4515492,9.60894878 83.3347148,9.38130438 L82.5318729,7.76816903 L77.9650681,8.06489174 C77.5893033,9.22195329 77.3651076,9.92765095 77.2940596,10.1811997 C77.2230116,10.4363184 77.1922242,10.6357035 77.2016973,10.78014 C77.2214328,11.0705828 77.3524768,11.2636881 77.5964081,11.3602407 C77.7479771,11.4183293 78.026643,11.4505135 78.4339846,11.4567934 L78.455299,11.7770655 L75.0213144,12 Z" id="Fill-5" fill="#FFFFFF" opacity="0.5"></path>
                <g id="Group-9" transform="translate(88.000000, 0.000000)">
                    <mask id="mask-2" fill="white">
                        <use xlink:href="#path-1"></use>
                    </mask>
                    <g id="Clip-8" opacity="0.5"></g>
                    <path d="M3.6859875,11.664575 C3.8176125,11.77345 4.10605,11.85145 4.5513,11.9002 C5.9398625,12.05295 7.1123,11.9026375 8.069425,11.4508875 C9.538425,10.7562 10.38505,9.3871375 10.6084875,7.3445125 C10.8083625,5.52045 10.39155,4.0863875 9.3588625,3.042325 C8.4732375,2.1477625 7.2293,1.6131375 5.62705,1.4376375 C5.2281125,1.3937625 4.952675,1.4083875 4.80155,1.4798875 C4.650425,1.550575 4.5586125,1.7333875 4.5261125,2.0291375 L3.5364875,11.0690125 C3.5048,11.3582625 3.5543625,11.5565125 3.6859875,11.664575 L3.6859875,11.664575 Z M0.0557375,11.7417625 C0.7106125,11.7433875 1.1461125,11.6735125 1.3606125,11.5305125 C1.5751125,11.388325 1.7197375,10.9837 1.79205,10.3166375 L2.658175,2.411825 C2.7288625,1.7642625 2.6793,1.3377 2.508675,1.131325 C2.33805,0.9257625 1.9253,0.7632625 1.2712375,0.6446375 L1.3069875,0.3147625 L6.096675,0.8396375 C7.7103,1.0167625 9.04605,1.43195 10.103925,2.086825 C12.0124875,3.2608875 12.8323,5.07845 12.56255,7.5362625 C12.4658625,8.421075 12.1928625,9.243325 11.74355,10.0013875 C11.29505,10.7602625 10.6767375,11.3745125 9.8869875,11.8441375 C9.3864875,12.1398875 8.8778625,12.3511375 8.3603,12.47545 C7.4153625,12.7118875 6.2811125,12.7573875 4.955925,12.61195 L0.0199875,12.0716375 L0.0557375,11.7417625 Z" id="Fill-7" fill="#FFFFFF" opacity="0.5" mask="url(#mask-2)"></path>
                </g>
                <path d="M102.079845,12.3755177 C102.800081,12.5014338 103.284856,12.5097177 103.534168,12.3995412 C103.783481,12.2893647 103.991241,11.893392 104.15745,11.211623 L106.074549,3.34270057 C106.233425,2.69241063 106.230981,2.24673421 106.067217,2.00649971 C105.902638,1.76709361 105.471637,1.54094182 104.771769,1.32721596 L104.851614,1 L110,2.2964379 L109.920155,2.62448225 C109.203178,2.48116995 108.717588,2.47619958 108.462573,2.61039954 C108.207557,2.7445995 108.000611,3.13725865 107.841735,3.78837698 L105.924636,11.6572994 C105.758428,12.33824 105.760057,12.78723 105.930339,13.003441 C106.099806,13.2196521 106.532437,13.4416619 107.227416,13.6719556 L107.147571,14 L102,12.7035621 L102.079845,12.3755177 Z" id="Fill-10" fill="#FFFFFF" opacity="0.5"></path>
                <path d="M108.114843,13.8804529 C108.788587,14.0667489 109.262505,14.0840264 109.535065,13.9330364 C109.808391,13.7820465 110.108514,13.3020336 110.435433,12.4922466 L113.168691,5.72323872 L113.053849,5.39196223 C112.932115,5.03814992 112.802726,4.79927027 112.667211,4.67382089 C112.532462,4.54912271 112.305839,4.41916617 111.988873,4.28470247 L112.103716,4 L114.775725,5.03814992 L117.852746,14.7390674 L119.914557,9.63320277 C120.25296,8.79336803 120.346366,8.19692011 120.194008,7.84461018 C120.09218,7.61474486 119.762964,7.36309492 119.207125,7.08966035 L119.321968,6.80495788 L123,8.2337286 L122.885157,8.51918227 C122.264241,8.34791007 121.808697,8.33513978 121.519294,8.48312497 C121.22989,8.63111016 120.922111,9.10736707 120.597489,9.91339808 L117.332125,18 L117.064159,17.8963352 L113.537719,6.77866609 L111.123724,12.7604228 C110.784555,13.5995064 110.688853,14.1952031 110.835851,14.547513 C110.932319,14.7751248 111.251582,15.0297795 111.792875,15.3092236 L111.678032,15.5946773 L108,14.1651553 L108.114843,13.8804529 Z" id="Fill-12" fill="#FFFFFF" opacity="0.5"></path>
                <path d="M133.880613,13.3469687 C134.339203,13.867199 134.609899,14.1531209 134.6927,14.2055535 C134.905275,14.3415507 135.08282,14.3956219 135.223741,14.3677671 C135.363865,14.3399122 135.51434,14.266998 135.673573,14.147386 L136,14.3554782 L134.17599,17.6546396 L133.834436,17.4367164 C133.976949,16.4994825 133.994464,15.7449437 133.888575,15.1731 C133.686349,14.1613135 133.114704,13.3559805 132.174435,12.7562819 C131.219039,12.1483908 130.154569,11.9861772 128.98182,12.2704605 C127.808275,12.5547439 126.706385,13.552603 125.677742,15.2632186 C124.828236,16.6748042 124.525694,18.0069216 124.771708,19.2612092 C125.01613,20.5138583 125.66978,21.478947 126.731862,22.1556561 C126.910999,22.2695332 127.132332,22.3866875 127.395863,22.5062995 C127.659393,22.6259115 127.922126,22.7176687 128.185657,22.7823902 C128.610808,22.8880748 128.893446,22.9249415 129.033571,22.8938096 C129.172899,22.8618585 129.293916,22.7619087 129.395825,22.5923218 L130.86395,20.150926 C131.220631,19.55942 131.360756,19.1383201 131.285917,18.8900843 C131.211077,18.6410291 130.910924,18.3239753 130.383864,17.9397422 L130.555039,17.6562782 L134.351146,20.0739155 L134.179174,20.3590181 C133.797016,20.1484682 133.513582,20.0550725 133.332853,20.0780118 C133.033495,20.1075052 132.733342,20.3721262 132.433188,20.8710558 L130.618732,23.8859339 C130.51125,24.0661712 129.938808,24.0325815 128.903796,23.7868034 C127.867191,23.5410253 126.954788,23.1666233 126.164198,22.6635975 C124.709607,21.737014 123.74625,20.5195931 123.272532,19.0096963 C122.751045,17.3465977 122.977952,15.7039807 123.953252,14.0818452 C124.811516,12.6555129 125.985857,11.7133635 127.475479,11.2537584 C129.115575,10.745817 130.732583,11.000607 132.328095,12.0164898 C132.904517,12.3835185 133.422819,12.8275576 133.880613,13.3469687" id="Fill-14" fill="#FFFFFF" opacity="0.5"></path>
                <path d="M138.242335,31.2374542 C138.73425,31.6415033 139.106206,31.8586044 139.358202,31.8872496 C139.608588,31.9158949 139.978128,31.7199009 140.467628,31.2970062 L146.253875,26.290868 C146.715196,25.8913418 146.9527,25.5649365 146.965582,25.3116519 C146.979269,25.0576136 146.778799,24.689748 146.366588,24.208809 L146.608118,24 L150,27.4381865 L149.759275,27.6462417 C149.291513,27.2203317 148.916337,26.9881542 148.634552,26.9489554 C148.353573,26.9097566 147.996109,27.0771053 147.563771,27.4510015 L141.312982,32.8581736 C141.169675,32.9825544 141.078698,33.1039199 141.041664,33.2207624 C141.003824,33.337605 141.05052,33.4830928 141.182556,33.6564721 C141.259846,33.7582382 141.345991,33.861512 141.442603,33.9670472 C141.537605,34.0718286 141.721972,34.2632996 141.996511,34.5414603 C143.066488,35.6247039 143.884468,36.2752531 144.450453,36.4916003 C145.018048,36.7071936 145.869037,36.6551798 147.005032,36.3348051 L147.310969,36.6446263 L144.46736,38 L138,31.4462632 L138.242335,31.2374542 Z" id="Fill-16" fill="#FFFFFF" opacity="0.5"></path>
                <path d="M148.148679,42.0213513 C147.813177,43.1234312 147.935034,44.1200528 148.511877,45.012021 C149.077643,45.8846686 149.915608,46.3918347 151.029731,46.5335192 C152.142271,46.6760087 153.481909,46.2219743 155.049435,45.1722211 C156.63437,44.1095875 157.575993,43.0292433 157.875888,41.9295784 C158.174992,40.8307187 158.047596,39.8526127 157.491326,38.9936505 C156.917648,38.1073174 156.06623,37.6017614 154.936282,37.4769825 C153.807125,37.3522035 152.476192,37.8046279 150.94269,38.8318404 C149.414728,39.8566378 148.4826,40.9192715 148.148679,42.0213513 M154.555676,36.1414452 C156.001345,36.4771408 157.154241,37.3095372 158.015154,38.6386343 C158.878441,39.9717565 159.174379,41.3821611 158.902179,42.8698482 C158.608614,44.4815092 157.685981,45.8073862 156.13428,46.8474791 C154.55805,47.9036726 152.973907,48.233733 151.380268,47.8384655 C149.955172,47.4810342 148.823642,46.6558831 147.984884,45.3605971 C147.086781,43.9743432 146.802712,42.5140269 147.133467,40.9812584 C147.472926,39.421119 148.382107,38.1459587 149.857845,37.1565823 C151.410337,36.1156844 152.976281,35.7775737 154.555676,36.1414452" id="Fill-18" fill="#FFFFFF" opacity="0.5"></path>
                <path d="M158.964007,56.166537 L162.530234,52.5035019 L157.409778,52.551751 L158.964007,56.166537 Z M152,51.1252918 L152.292442,51 C152.513137,51.385214 152.796221,51.6233463 153.142472,51.7143969 C153.488722,51.8054475 154.347331,51.848249 155.718296,51.8428016 L164.864307,51.8054475 L165,52.1198444 L157.74823,59.8677043 C157.268626,60.3828794 156.992561,60.7486381 156.920036,60.9642023 C156.846731,61.1805447 156.863887,61.4840467 156.971506,61.8747082 L156.678284,62 L154.957948,57.9992218 L155.25039,57.87393 C155.489022,58.3167315 155.666047,58.5914397 155.782244,58.6996109 C155.89766,58.8077821 156.070786,58.8116732 156.30084,58.7128405 C156.378044,58.6801556 156.50126,58.5968872 156.672825,58.4622568 C156.845171,58.3284047 157.019076,58.1688716 157.193761,57.985214 L158.439952,56.7050584 L156.656449,52.5595331 C155.44847,52.5929961 154.714637,52.6178988 154.452609,52.6365759 C154.192142,52.6544747 153.994061,52.6918288 153.861488,52.7486381 C153.596341,52.863035 153.458308,53.0490272 153.44895,53.307393 C153.444271,53.4661479 153.506659,53.736965 153.634553,54.1175097 L153.342112,54.2428016 L152,51.1252918 Z" id="Fill-20" fill="#FFFFFF" opacity="0.5"></path>
                <path d="M159.604026,66.9175689 C159.545192,67.0747506 159.567255,67.3690653 159.668579,67.8005129 C159.985625,69.1429726 160.516759,70.186306 161.263616,70.9305131 C162.411683,72.072486 163.992012,72.4141156 166.006237,71.9570056 C167.803105,71.5480125 169.026348,70.6923348 169.674332,69.3899724 C170.228346,68.2728598 170.322316,66.9400235 169.957059,65.3906613 C169.866357,65.0041227 169.760948,64.7523113 169.643281,64.6344251 C169.525614,64.5173407 169.321332,64.4916784 169.029616,64.5582401 L160.121269,66.5831569 C159.835273,66.6481147 159.662859,66.7595853 159.604026,66.9175689 L159.604026,66.9175689 Z M158.326035,63.5598157 C158.54094,64.1717015 158.752576,64.5542303 158.95931,64.7074023 C159.165227,64.8613761 159.597489,64.8621781 160.255278,64.7130159 L168.044975,62.9423163 C168.683971,62.7971638 169.072924,62.6111121 169.211836,62.3857649 C169.350748,62.1588138 169.367091,61.7217525 169.262498,61.0737791 L169.587716,61 L170.681036,65.6320475 C171.049561,67.1934388 171.098589,68.5727881 170.828936,69.7733032 C170.347647,71.9337492 168.895607,73.28904 166.472818,73.8407798 C165.601757,74.0388607 164.72988,74.0516919 163.861271,73.8816791 C162.991845,73.7108643 162.203315,73.334751 161.494864,72.7525373 C161.047894,72.3820377 160.677734,71.9778563 160.38847,71.5367852 C159.849982,70.7332341 159.429977,69.6907026 159.127639,68.4091909 L158,63.6343968 L158.326035,63.5598157 Z" id="Fill-22" fill="#FFFFFF" opacity="0.5"></path>
                <path d="M160.323379,77.0159256 C160.440177,77.6932093 160.589552,78.1243471 160.769913,78.3116321 C160.950275,78.4981526 161.37615,78.5616002 162.046746,78.5004459 L169.787195,77.797936 C170.427597,77.7398395 170.830431,77.6014779 170.994902,77.3828513 C171.158578,77.1642247 171.224525,76.7132119 171.191949,76.0290483 L171.514534,76 L172,80.9534973 L171.677415,80.98331 C171.576508,80.3052618 171.42475,79.8733597 171.220552,79.6883679 C171.016354,79.5041407 170.594451,79.4406931 169.954049,79.4987897 L162.212805,80.2012995 C161.54221,80.2624538 161.136993,80.4008154 160.996358,80.6171487 C160.854929,80.833482 160.792955,81.2844948 160.808846,81.9701873 L160.486261,82 L160,77.0449739 L160.323379,77.0159256 Z" id="Fill-24" fill="#FFFFFF" opacity="0.5"></path>
                <g id="Group-28" transform="translate(160.000000, 83.000000)">
                    <mask id="mask-4" fill="white">
                        <use xlink:href="#path-3"></use>
                    </mask>
                    <g id="Clip-27" opacity="0.5"></g>
                    <path d="M0.9581,0.418982353 C1.00685,1.11639412 1.1555375,1.5691 1.4066,1.77480588 C1.65685,1.98127647 2.253225,2.10057059 3.1941,2.13345294 L11.063975,2.40951176 L11.36135,2.18927647 C11.678225,1.95374706 11.8772875,1.7511 11.9569125,1.58133529 C12.0365375,1.41157059 12.0885375,1.15462941 12.113725,0.810511765 L12.4460375,0.821217647 L12.331475,3.68962941 L3.52885,9.88068824 L9.464975,10.0886882 C10.4416,10.1223353 11.08185,10.0076294 11.38735,9.74457059 C11.5847875,9.57098235 11.72535,9.17562941 11.808225,8.55927647 L12.1389125,8.57074706 L11.9821,12.5189235 L11.6506,12.5082176 C11.6059125,11.8651 11.4580375,11.4322765 11.2045375,11.2097471 C10.9510375,10.9872176 10.3562875,10.8595118 9.4211,10.8266294 L0.01885,10.4978059 L0.0294125,10.2102765 L10.118225,3.11533529 L3.1656625,2.87215882 C2.1890375,2.83774706 1.547975,2.95015882 1.24085,3.2071 C1.0426,3.3761 0.89635,3.76304118 0.8029125,4.36792353 L0.4706,4.35568824 L0.6266,0.407511765 L0.9581,0.418982353 Z" id="Fill-26" fill="#FFFFFF" opacity="0.5" mask="url(#mask-4)"></path>
                </g>
                <path d="M170.14315,107.352245 C169.825805,107.958019 169.65535,108.307844 169.635712,108.404126 C169.583083,108.65125 169.592509,108.837395 169.663991,108.961759 C169.734686,109.086123 169.851727,109.204871 170.011185,109.316398 L169.931063,109.695909 L166.348366,109.042796 L166.431629,108.646435 C167.326322,108.47393 168.014426,108.244458 168.495156,107.957217 C169.343504,107.434085 169.883147,106.627723 170.114086,105.538131 C170.349738,104.431691 170.144721,103.367774 169.502176,102.346383 C168.857275,101.324189 167.593394,100.605283 165.708177,100.187259 C164.152088,99.8430506 162.848146,99.9914854 161.795567,100.63497 C160.744559,101.278455 160.087875,102.214797 159.827087,103.443998 C159.783098,103.651806 159.750892,103.900535 159.728898,104.190183 C159.707689,104.479029 159.710832,104.759049 159.739895,105.029441 C159.783884,105.469129 159.844368,105.749952 159.918205,105.871909 C159.992829,105.994669 160.123223,106.076508 160.310173,106.117428 L163.000535,106.713574 C163.652506,106.8588 164.079036,106.853985 164.27934,106.701539 C164.479644,106.549092 164.66581,106.159953 164.839407,105.533317 L165.152824,105.603122 L164.219642,110 L163.90701,109.930998 C163.96985,109.497729 163.960424,109.199255 163.880303,109.034773 C163.754622,108.759567 163.416854,108.561386 162.866999,108.438627 L159.544304,107.702872 C159.346356,107.659545 159.187684,107.105121 159.067501,106.040402 C158.94889,104.976486 158.986594,103.987189 159.180614,103.071707 C159.538805,101.386772 160.32117,100.073325 161.528495,99.128959 C162.860715,98.0891134 164.41916,97.7681733 166.206189,98.1637319 C167.778774,98.5111495 169.016733,99.3183137 169.923993,100.582817 C170.922373,101.974895 171.226364,103.594037 170.834396,105.441849 C170.692219,106.110207 170.462066,106.746471 170.14315,107.352245" id="Fill-29" fill="#FFFFFF" opacity="0.5"></path>
                <path d="M150.592091,124.172232 C150.285477,124.712244 150.145013,125.099579 150.173106,125.334988 C150.200396,125.569645 150.488549,125.861462 151.037564,126.209687 L157.544681,130.33198 C158.063998,130.66065 158.455693,130.802046 158.722175,130.756167 C158.987051,130.709537 159.32256,130.444795 159.728703,129.959687 L160,130.131919 L157.207566,134 L156.936269,133.82852 C157.271779,133.306558 157.427494,132.912455 157.403414,132.647714 C157.380137,132.381468 157.126498,132.094916 156.64009,131.787304 L149.611248,127.334838 C149.449112,127.231799 149.303831,127.176895 149.172999,127.169374 C149.043771,127.162605 148.903307,127.237816 148.754816,127.397262 C148.666524,127.490523 148.578232,127.59281 148.491545,127.704122 C148.404056,127.814681 148.248341,128.026775 148.022795,128.339651 C147.142284,129.558815 146.655073,130.451564 146.56036,131.016396 C146.464041,131.580475 146.712061,132.342359 147.302815,133.30355 L147.052387,133.651775 L145,131.374398 L150.320794,124 L150.592091,124.172232 Z" id="Fill-31" fill="#FFFFFF" opacity="0.5"></path>
                <path d="M143.862056,136.233598 C142.722881,136.153728 141.790031,136.498766 141.063508,137.268711 C140.353714,138.021085 140.058166,138.960354 140.176863,140.086519 C140.294764,141.212684 141.040406,142.426705 142.412993,143.728584 C143.800716,145.045637 145.057792,145.726927 146.185815,145.771654 C147.313838,145.81718 148.226771,145.469746 148.925412,144.730152 C149.647952,143.964998 149.940314,143.01295 149.800108,141.874805 C149.660698,140.738257 148.919836,139.532222 147.577521,138.257499 C146.238392,136.987569 145.001232,136.313468 143.862056,136.233598 M150.999915,141.198307 C151.007793,142.695068 150.470867,144.016914 149.388252,145.163845 C148.301654,146.31397 147.01112,146.924176 145.515852,146.993663 C143.895514,147.069539 142.40662,146.464126 141.047576,145.173429 C139.667819,143.864362 138.98511,142.381978 139.000246,140.727075 C139.016975,139.245489 139.552308,137.946806 140.607838,136.828628 C141.737454,135.632178 143.078973,135.022771 144.631597,135.000407 C146.212104,134.982037 147.650014,135.585055 148.942938,136.812654 C150.301186,138.101753 150.987081,139.56417 150.999915,141.198307" id="Fill-33" fill="#FFFFFF" opacity="0.5"></path>
                <path d="M132.3075,151.012049 L136.764461,153.663841 L135.522591,148.644405 L132.3075,151.012049 Z M135.672977,143 L135.866895,143.258174 C135.536046,143.563575 135.366664,143.896525 135.356375,144.258598 C135.346877,144.619884 135.505178,145.473117 135.831278,146.819085 L138,155.79535 L137.719807,156 L128.360266,150.676738 C127.738935,150.325684 127.312314,150.139138 127.081195,150.117099 C126.850076,150.095846 126.553262,150.183216 126.192336,150.379995 L126,150.121821 L129.558604,147.501514 L129.751731,147.759688 C129.369435,148.09736 129.138315,148.335069 129.058373,148.473601 C128.978432,148.612921 129.014049,148.783725 129.165227,148.986801 C129.215883,149.054493 129.327485,149.157605 129.500824,149.294563 C129.673372,149.433095 129.871249,149.566118 130.094453,149.695205 L131.651342,150.62164 L135.339753,147.906091 C135.025526,146.728566 134.829233,146.012291 134.750082,145.759627 C134.671724,145.50775 134.587824,145.321991 134.50155,145.205498 C134.326628,144.970937 134.110547,144.878845 133.852516,144.92922 C133.692632,144.962279 133.440142,145.085856 133.093463,145.299952 L132.901128,145.041778 L135.672977,143 Z" id="Fill-35" fill="#FFFFFF" opacity="0.5"></path>
                <path d="M121.464197,153.177561 C121.307452,153.159256 121.042946,153.242392 120.670677,153.429258 C119.510163,154.012738 118.669921,154.724354 118.148444,155.566395 C117.348895,156.85844 117.372256,158.370148 118.220034,160.097706 C118.975875,161.640685 120.01883,162.563574 121.348146,162.866374 C122.486805,163.124172 123.725691,162.917476 125.064804,162.244758 C125.39864,162.07696 125.606628,161.926704 125.688768,161.793991 C125.770908,161.660516 125.750562,161.469073 125.628482,161.219664 L121.87942,153.573412 C121.7596,153.327817 121.620942,153.195866 121.464197,153.177561 L121.464197,153.177561 Z M124.260733,151.279155 C123.748299,151.608649 123.443852,151.884753 123.347394,152.106704 C123.250936,152.32713 123.341365,152.71993 123.617929,153.285104 L126.896004,159.971094 C127.164278,160.518726 127.416728,160.830678 127.653352,160.907713 C127.889976,160.983984 128.293142,160.903136 128.863602,160.665168 L129,160.945086 L124.996981,162.954849 C123.648826,163.632143 122.397129,163.979943 121.244151,163.99901 C119.165777,164.036384 117.617169,163.015104 116.597575,160.935933 C116.229828,160.186944 116.03239,159.399818 116.003,158.572269 C115.974364,157.745482 116.150702,156.946153 116.532014,156.17657 C116.774667,155.68843 117.067056,155.263596 117.408428,154.903593 C118.027871,154.239265 118.891474,153.628328 119.998483,153.072306 L124.124335,151 L124.260733,151.279155 Z" id="Fill-37" fill="#FFFFFF" opacity="0.5"></path>
                <path d="M112.649068,156.316913 C112.038398,156.602709 111.664759,156.857386 111.526675,157.08422 C111.38933,157.311874 111.421082,157.754079 111.621931,158.411654 L113.939819,166.002016 C114.131069,166.63011 114.347425,166.999433 114.588148,167.110803 C114.828134,167.220535 115.266753,167.175496 115.903267,166.974047 L116,167.290142 L111.446926,169 L111.350194,168.683906 C111.966033,168.414488 112.338933,168.155717 112.468894,167.905134 C112.599594,167.656189 112.56858,167.21726 112.377331,166.589165 L110.059442,158.997984 C109.858593,158.341228 109.641499,157.96863 109.408159,157.880189 C109.17482,157.792567 108.737678,157.840882 108.095994,158.026772 L108,157.709858 L112.552335,156 L112.649068,156.316913 Z" id="Fill-39" fill="#FFFFFF" opacity="0.5"></path>
                <path d="M106.776013,159.302852 C106.056076,159.502992 105.616709,159.739383 105.458734,160.012781 C105.300759,160.286179 105.313101,160.852611 105.494937,161.711323 L107.018734,168.897461 L107.317405,169.116482 C107.637468,169.351362 107.895,169.48504 108.091646,169.518271 C108.287468,169.552257 108.569684,169.542439 108.935823,169.487306 L109,169.790914 L105.968861,170.332423 L97.4546835,163.755011 L98.6041139,169.17388 C98.7933544,170.065822 99.0615823,170.619416 99.4071519,170.836926 C99.6350633,170.977401 100.081835,171.015163 100.745823,170.951723 L100.810823,171.25382 L96.6376582,172 L96.573481,171.696392 C97.2366456,171.512113 97.655443,171.280253 97.8298734,171.000813 C98.0051266,170.722129 98.0018354,170.154941 97.8208228,169.300006 L96,160.715157 L96.3036076,160.661535 L106.06019,168.199617 L104.714114,161.851043 C104.524873,160.959856 104.259937,160.404752 103.919304,160.184221 C103.697152,160.042236 103.258608,159.996921 102.602848,160.048277 L102.538671,159.745425 L106.711835,159 L106.776013,159.302852 Z" id="Fill-41" fill="#FFFFFF" opacity="0.5"></path>
                <path d="M85.9632731,172.683576 C85.2993827,172.50761 84.9180672,172.42081 84.8209321,172.422389 C84.5680597,172.426334 84.3890421,172.476835 84.2838793,172.574682 C84.1795192,172.672529 84.0912146,172.812197 84.0197681,172.994476 L83.6312277,173 L83.4329436,169.349685 L83.8383422,169.343372 C84.2140383,170.179015 84.5985649,170.800815 84.9903164,171.207195 C85.6975564,171.918951 86.6095025,172.266938 87.7245494,172.248789 C88.8564544,172.23064 89.8454665,171.791908 90.6907827,170.933382 C91.536099,170.074855 91.9431032,168.677383 91.9109924,166.739386 C91.884501,165.139907 91.4357529,163.897885 90.5647479,163.013318 C89.6929402,162.128752 88.6284679,161.696333 87.3689225,161.716849 C87.1569914,161.720005 86.90733,161.743678 86.6199385,161.787077 C86.3333498,161.832055 86.061211,161.898339 85.8043247,161.986716 C85.3868846,162.128752 85.1267873,162.249482 85.0256383,162.349696 C84.9236866,162.450699 84.8739149,162.59668 84.8771259,162.788429 L84.9228838,165.553388 C84.9341226,166.223323 85.0368771,166.639961 85.2319501,166.801724 C85.4278258,166.963486 85.8500826,167.058966 86.5003259,167.088162 L86.5059453,167.41011 L82.0048166,167.481916 L82,167.159969 C82.4359038,167.12446 82.7257036,167.049497 82.8669911,166.93429 C83.1054136,166.748855 83.2202097,166.374828 83.2105764,165.809842 L83.1543826,162.393885 C83.1511715,162.190301 83.6537052,161.911753 84.6627865,161.555875 C85.6718678,161.200786 86.6448244,161.01614 87.5816564,161.001147 C89.3060053,160.973529 90.7686514,161.444614 91.9687918,162.414401 C93.291756,163.484403 93.9684907,164.937901 93.9989959,166.774106 C94.0254873,168.390155 93.5277702,169.782104 92.5066474,170.951531 C91.3835728,172.240899 89.8767745,172.900575 87.9854495,172.93056 C87.3014899,172.941608 86.6279662,172.859543 85.9632731,172.683576" id="Fill-43" fill="#FFFFFF" opacity="0.5"></path>
                <path d="M72.9158059,160.568155 C72.2577841,160.475973 71.8131084,160.482068 71.581779,160.585677 C71.3504496,160.689287 71.1493646,161.045827 70.9793416,161.655298 L68.9684922,168.870663 C68.8082782,169.446613 68.7968344,169.845816 68.9341607,170.068272 C69.071487,170.289967 69.4581259,170.500234 70.0916252,170.699074 L70.0082485,171 L65.0955636,169.810771 L65.1797577,169.509083 C65.828788,169.632501 66.2857249,169.638596 66.5489336,169.528129 C66.8129598,169.416901 67.0197667,169.092358 67.1701717,168.553739 L69.3420525,160.760138 C69.391915,160.580345 69.3992718,160.431024 69.3624879,160.312178 C69.3257041,160.194093 69.2006391,160.094292 68.9864754,160.013537 C68.8614104,159.967065 68.7265364,159.922879 68.5834881,159.883263 C68.4396225,159.842124 68.1698744,159.77432 67.7726091,159.678329 C66.2236011,159.303504 65.1446088,159.168659 64.5331798,159.274555 C63.9225682,159.379688 63.2261277,159.858884 62.4430408,160.712143 L62,160.605485 L63.6348369,158 L73,160.266467 L72.9158059,160.568155 Z" id="Fill-45" fill="#FFFFFF" opacity="0.5"></path>
                <path d="M57.1978835,157.373628 C56.8877864,156.283895 56.2399197,155.524791 55.2542832,155.098682 C54.2898082,154.682043 53.2862659,154.713607 52.2444701,155.193373 C51.2018605,155.674718 50.2878475,156.768396 49.5016172,158.476775 C48.7056201,160.205671 48.4777273,161.603938 48.8171248,162.673154 C49.1557085,163.741582 49.7995057,164.480959 50.7477026,164.891285 C51.7284557,165.315027 52.7417648,165.276361 53.788444,164.772133 C54.8343093,164.268694 55.742625,163.181328 56.5117633,161.509247 C57.2792738,159.841901 57.5071666,158.46415 57.1978835,157.373628 M54.845704,165.670906 C53.4099792,166.169611 51.9571624,166.101749 50.4880676,165.465743 C49.0140894,164.828158 47.9901995,163.822069 47.415584,162.448264 C46.7921343,160.959252 46.870269,159.367658 47.6491741,157.675849 C48.4402878,155.957212 49.6334695,154.833548 51.2295332,154.304858 C52.6595606,153.834561 54.0895881,153.907946 55.5212434,154.528171 C57.0546365,155.191006 58.0956184,156.244441 58.6433751,157.687686 C59.1984569,159.159338 59.105672,160.70043 58.3642064,162.310173 C57.5853013,164.00277 56.4124671,165.123278 54.845704,165.670906" id="Fill-47" fill="#FFFFFF" opacity="0.5"></path>
                <path d="M40.028715,151.148754 L38.9558754,156.155763 L43.4354083,153.359813 L40.028715,151.148754 Z M49,151.651869 L48.8134546,151.915109 C48.4028919,151.709502 48.0192112,151.660436 47.6632272,151.770249 C47.3072432,151.879283 46.5268481,152.305296 45.3236712,153.047508 L37.2948883,158 L37,157.808411 L39.0120834,147.373832 C39.14405,146.682243 39.1807074,146.225078 39.1228701,146.003894 C39.0658475,145.781153 38.8793022,145.535047 38.5640486,145.26324 L38.7514086,145 L42.5214174,147.447819 L42.334872,147.711059 C41.8754328,147.465732 41.5642523,147.330218 41.4013305,147.301402 C41.2384088,147.272586 41.0836332,147.36215 40.9370036,147.567757 C40.8881271,147.637072 40.8262168,147.774922 40.7504582,147.98053 C40.673885,148.186137 40.6111601,148.413551 40.561469,148.663551 L40.186749,150.411994 L44.0944267,152.948598 C45.1379404,152.270249 45.7700767,151.853583 45.990021,151.697819 C46.2099654,151.542835 46.3622972,151.404984 46.4470165,151.285826 C46.6164551,151.046729 46.6327473,150.815421 46.4950784,150.5919 C46.4095445,150.455607 46.2026339,150.260903 45.8751612,150.008567 L46.0617066,149.745327 L49,151.651869 Z" id="Fill-49" fill="#FFFFFF" opacity="0.5"></path>
                <path d="M34.9594047,141.888163 C34.9240032,141.72638 34.7501425,141.494359 34.439396,141.190522 C33.4701817,140.244289 32.4860201,139.658713 31.4869111,139.432217 C29.9520595,139.085764 28.490371,139.627935 27.1018456,141.057939 C25.8627932,142.334842 25.3262638,143.681982 25.4922575,145.09857 C25.6354369,146.312338 26.2663703,147.465339 27.3842709,148.557572 C27.6627627,148.829841 27.8806786,148.982943 28.0388052,149.019245 C28.1969319,149.054759 28.3762995,148.969527 28.576908,148.76276 L34.7186745,142.43349 C34.9153495,142.231458 34.9955929,142.049157 34.9594047,141.888163 L34.9594047,141.888163 Z M37.7757905,143.999235 C37.2770227,143.60622 36.9033403,143.399453 36.6539564,143.380513 C36.4053592,143.361573 36.054491,143.584912 35.6005652,144.05211 L30.2305513,149.58667 C29.790786,150.039663 29.5744435,150.396375 29.5815238,150.656017 C29.5893908,150.915659 29.8073067,151.286576 30.2360582,151.768769 L30.0118487,152 L26.6691606,148.735138 C25.543393,147.635013 24.7716404,146.518316 24.3539027,145.385045 C23.5970973,143.345 24.05417,141.46437 25.724334,139.743156 C26.3253728,139.123645 27.0239623,138.657236 27.8185293,138.345508 C28.6130962,138.032201 29.4517184,137.931974 30.333609,138.044828 C30.892166,138.117433 31.405881,138.259486 31.8755409,138.473356 C32.7369773,138.8569 33.6298818,139.500876 34.5542542,140.403704 L38,143.768792 L37.7757905,143.999235 Z" id="Fill-51" fill="#FFFFFF" opacity="0.5"></path>
                <path d="M28.7509536,134.186579 C28.2823431,133.669005 27.9231267,133.37748 27.6725286,133.312783 C27.4219306,133.248087 27.0378871,133.420351 26.5203983,133.828019 L20.5510442,138.541525 C20.0568307,138.931264 19.8031292,139.264101 19.7876123,139.537698 C19.7728713,139.812854 19.9668326,140.234552 20.3694963,140.803571 L20.12045,141 L17,137.010629 L17.2490464,136.814201 C17.7044676,137.341908 18.0667874,137.631094 18.3360057,137.680981 C18.6044482,137.731647 18.9861641,137.561721 19.4796017,137.171981 L25.4497317,132.458475 C25.9664447,132.050808 26.2232495,131.716412 26.2201461,131.456066 C26.2170427,131.196499 26.019978,130.776361 25.6305037,130.197208 L25.87955,130 L29,133.99015 L28.7509536,134.186579 Z" id="Fill-53" fill="#FFFFFF" opacity="0.5"></path>
                <path d="M24.7227801,129.296065 C24.2959244,128.712185 23.9226226,128.395653 23.6036621,128.348847 C23.2839142,128.300455 22.7310494,128.510683 21.9450679,128.977946 L15.3705454,132.885816 L15.2516243,133.234874 C15.1232526,133.607732 15.0744241,133.889359 15.1035637,134.078961 C15.1334908,134.27015 15.2335105,134.521631 15.4044103,134.83499 L15.1271904,135 L13.6245324,132.436006 L17.3646387,122.389465 L12.4061823,125.337423 C11.5902737,125.822139 11.1311282,126.260049 11.0279583,126.651153 C10.9641662,126.9066 11.0696988,127.326264 11.3453436,127.907764 L11.0681236,128.07198 L9,124.542522 L9.27643237,124.377512 C9.67021067,124.91538 10.0324867,125.214459 10.3624729,125.275545 C10.6932467,125.33663 11.2492617,125.134335 12.0313054,124.669452 L19.8856074,120 L20.0360307,120.257034 L15.7493601,131.770415 L21.5583776,128.317114 C22.3734987,127.832399 22.8350069,127.396076 22.9421146,127.009731 C23.010632,126.75825 22.9145501,126.343347 22.6546564,125.765813 L22.9310888,125.601597 L25,129.131056 L24.7227801,129.296065 Z" id="Fill-55" fill="#FFFFFF" opacity="0.5"></path>
                <path d="M5.05579033,114.067182 C5.00480491,113.390019 4.9624478,113.005447 4.92950337,112.915053 C4.84322036,112.681139 4.73732757,112.531275 4.61182501,112.466254 C4.48632244,112.401234 4.32630667,112.365552 4.13256208,112.360794 L4,112.000804 L7.35797801,110.594937 L7.49524645,110.970786 C6.8340048,111.600374 6.37670483,112.165733 6.12334653,112.666073 C5.68644072,113.563671 5.65741825,114.528668 6.03627912,115.561857 C6.42219951,116.610112 7.15403635,117.384805 8.2341428,117.884352 C9.31346486,118.384692 10.7567444,118.295883 12.5624125,117.61872 C14.0527555,117.058118 15.070895,116.22554 15.6168312,115.117023 C16.1627674,114.010091 16.2215967,112.873028 15.7933192,111.707419 C15.7211552,111.509979 15.6176156,111.28558 15.4827003,111.033428 C15.3485695,110.781276 15.1979664,110.54974 15.0308911,110.340406 C14.761845,109.998653 14.5641784,109.797248 14.4363227,109.736193 C14.3092514,109.675137 14.1570795,109.678309 13.9782383,109.744915 L11.4007294,110.713084 C10.7755697,110.946998 10.4194562,111.182499 10.3316044,111.417999 C10.2437526,111.654293 10.2916005,112.080097 10.475148,112.696204 L10.1755106,112.808008 L8.64437931,108.639569 L8.94401668,108.527766 C9.11893588,108.921853 9.283658,109.166075 9.43739864,109.260434 C9.68840377,109.420606 10.0774617,109.400783 10.6037881,109.203343 L13.7868469,108.008396 C13.9766696,107.937825 14.4018095,108.312089 15.0630511,109.132772 C15.7242928,109.954249 16.2145372,110.79872 16.5329999,111.666187 C17.1197244,113.262357 17.1534532,114.782406 16.6349708,116.22554 C16.0631497,117.815367 14.9210764,118.931814 13.2095351,119.574088 C11.7035043,120.139448 10.2359087,120.141827 8.80831704,119.582017 C7.23404423,118.967496 6.12491531,117.784443 5.48171466,116.032858 C5.24953492,115.400099 5.10677575,114.744345 5.05579033,114.067182" id="Fill-57" fill="#FFFFFF" opacity="0.5"></path>
                <path d="M11.6748336,98.0636767 C11.5533955,97.4248019 11.4039947,97.0162099 11.2258322,96.8387003 C11.0484687,96.6611907 10.6314248,96.599622 9.97310253,96.6539943 L2.18189081,97.3016646 C1.56031957,97.3528386 1.16165113,97.4807734 0.986684421,97.6854692 C0.810918775,97.8893654 0.727030626,98.3187468 0.735818908,98.9736134 L0.410652463,99 L0,94.0521189 L0.325166445,94.0257324 C0.413049268,94.6678055 0.554460719,95.0907901 0.749400799,95.2962855 C0.944340879,95.5009813 1.33262317,95.580141 1.91424767,95.5313659 L10.3302264,94.831722 C10.5243675,94.8157302 10.6737683,94.7701534 10.7792277,94.6949916 C10.885486,94.6198299 10.9430093,94.470306 10.9533955,94.2448208 C10.958988,94.1120884 10.958988,93.9729592 10.9525965,93.8258341 C10.9462051,93.6803082 10.9262317,93.407647 10.8934754,93.007051 C10.7640479,91.4478447 10.5483356,90.4035764 10.2463382,89.8766446 C9.94434088,89.3497129 9.24447403,88.8723559 8.14673768,88.4461729 L8.10998668,88 L11.2170439,88.6052919 L12,98.0372901 L11.6748336,98.0636767 Z" id="Fill-59" fill="#FFFFFF" opacity="0.5"></path>
                <path d="M9.83579096,83.1129681 C10.7643285,82.4322025 11.2700851,81.5403082 11.3522705,80.4422724 C11.4336657,79.3666794 11.0788459,78.4124439 10.2870207,77.5779034 C9.4951955,76.743363 8.16600394,76.2487897 6.29865574,76.0933524 C4.40839045,75.9354214 3.01439882,76.2072289 2.11510036,76.9096061 C1.21659215,77.6119833 0.727430693,78.4914094 0.647615979,79.5495468 C0.565430532,80.6425953 0.931313822,81.6043118 1.7460561,82.4346962 C2.56079837,83.2650805 3.88208749,83.7554977 5.70992345,83.9084414 C7.5322277,84.0605539 8.90725345,83.7945649 9.83579096,83.1129681 M1.24108974,83.7687972 C0.304649785,82.5618721 -0.102326229,81.1396623 0.0217421867,79.5013363 C0.145020358,77.8580231 0.762991704,76.5181035 1.87407573,75.4815777 C3.07682815,74.3586054 4.60358089,73.8740067 6.45433394,74.0277816 C8.33274557,74.1848813 9.78047383,74.9379627 10.7975187,76.288688 C11.7055099,77.4989379 12.0990517,78.9028611 11.9789346,80.4979638 C11.8501247,82.2077743 11.1926411,83.5801113 10.0080643,84.6158059 C8.79898993,85.6672936 7.31412016,86.1194749 5.55424524,85.973181 C3.70349219,85.8194061 2.2660371,85.0837803 1.24108974,83.7687972" id="Fill-61" fill="#FFFFFF" opacity="0.5"></path>
                <path d="M9.49305003,64.4157273 L4.31884147,65.1479582 L8.47412896,68.3765778 L9.49305003,64.4157273 Z M11.9336844,73 L11.6192517,72.9157611 C11.6845264,72.4597368 11.6057192,72.0830915 11.3844223,71.7874452 C11.1631253,71.4909889 10.4984386,70.9086061 9.39036189,70.037867 L2,64.2310496 L2.08915559,63.8884239 L12.7981752,62.1526156 C13.5082359,62.0359771 13.9603821,61.9120486 14.15541,61.7808302 C14.3504378,61.6496119 14.5271569,61.3896051 14.6855673,61 L15,61.0842389 L13.8720225,65.4679042 L13.5575899,65.3836652 C13.6435613,64.8685116 13.6730145,64.5299359 13.6475415,64.3663179 C13.6220685,64.2043199 13.485947,64.0901114 13.239177,64.0245022 C13.1571857,64.0018225 13.0043476,63.9921026 12.7806625,63.9921026 C12.5577736,63.9929126 12.3181679,64.0131623 12.0618456,64.0528518 L10.2548527,64.3079987 L9.0854816,68.8512319 C10.0789296,69.5948026 10.6863021,70.041917 10.907599,70.1941951 C11.129692,70.3456632 11.3119833,70.440432 11.4544731,70.4785015 C11.7402486,70.5546406 11.9679138,70.4898414 12.1382647,70.283294 C12.2417488,70.1553156 12.3619497,69.8944988 12.4980712,69.5000337 L12.8125038,69.5834627 L11.9336844,73 Z" id="Fill-63" fill="#FFFFFF" opacity="0.5"></path>
                <path d="M15.8524393,56.6502327 C15.9887361,56.5664319 16.1449413,56.3354134 16.3225866,55.9579323 C16.8754308,54.7801913 17.0944245,53.7036151 16.978802,52.727449 C16.800391,51.2273391 15.831765,50.0760217 14.0736898,49.2734969 C12.5055112,48.5570377 11.0988978,48.4989057 9.85538118,49.0983457 C8.7910412,49.6139848 7.94033492,50.550893 7.30173093,51.9098249 C7.14246279,52.248048 7.07201726,52.4941657 7.09039436,52.648178 C7.10877145,52.8029452 7.24430251,52.9380835 7.49851897,53.0535927 L15.2750923,56.6049349 C15.523183,56.7189342 15.7161425,56.7340335 15.8524393,56.6502327 L15.8524393,56.6502327 Z M14.8294478,59.8701465 C15.0277672,59.2933554 15.0959156,58.8894506 15.0331272,58.6576772 C14.9711045,58.4274137 14.6525682,58.1797861 14.0782841,57.9185692 L7.27875956,54.8126546 C6.72208678,54.5582324 6.32544785,54.4751865 6.08960849,54.5642721 C5.85453484,54.6533576 5.58576985,54.9689318 5.28331352,55.5102397 L5,55.3803862 L6.90815485,51.3186895 C7.55135311,49.949943 8.32395674,48.8960158 9.22673145,48.1591727 C10.8492756,46.8259094 12.7183792,46.6432085 14.8332763,47.6088052 C15.5943943,47.9560878 16.2467811,48.4407736 16.7889053,49.0605975 C17.3317953,49.6811765 17.6939772,50.4082051 17.8762167,51.2424383 C17.9903078,51.7709119 18.0255306,52.2820213 17.981885,52.7735017 C17.9083766,53.6764365 17.6074517,54.6888408 17.079876,55.8122246 L15.1127613,60 L14.8294478,59.8701465 Z" id="Fill-65" fill="#FFFFFF" opacity="0.5"></path>
                <path d="M20.8326254,47.8347604 C21.1845559,47.2421511 21.3485703,46.8207901 21.3254929,46.5706775 C21.3015913,46.3213159 20.9949914,46.0253868 20.4056933,45.6828902 L13.6044506,41.7321616 C13.0423509,41.4054379 12.6211881,41.2792549 12.3417866,41.3528616 C12.0632093,41.4272195 11.7104546,41.7389214 11.2835225,42.2879676 L11,42.123479 L13.8838522,38 L14.1673746,38.1652396 C13.8006086,38.7495869 13.639891,39.1732011 13.6843974,39.4338291 C13.7280796,39.6959591 14.0322069,39.9903861 14.5943067,40.3171098 L21.3955494,44.2678384 C21.9848475,44.610335 22.4084829,44.7380201 22.6672795,44.652396 C22.9260762,44.5660207 23.2755341,44.2528166 23.7164775,43.7120324 L24,43.876521 L21.1161478,48 L20.8326254,47.8347604 Z" id="Fill-67" fill="#FFFFFF" opacity="0.5"></path>
                <path d="M24.7225078,42.7871574 C25.1377885,42.1784596 25.3143836,41.711657 25.2522931,41.3875557 C25.1902026,41.0626482 24.8015321,40.5990705 24.0862816,39.9968225 L18.1102711,34.9603528 L17.7361153,34.9619653 C17.3345429,34.9635777 17.0474751,35.0103386 16.8757182,35.1030542 C16.7031549,35.1957697 16.4951114,35.3779759 16.2515875,35.6480603 L16,35.4360239 L17.9514162,33.1221664 L28.8543494,33.356777 L24.3467392,29.5578583 C23.6056849,28.9322299 23.0299365,28.6363464 22.6203004,28.6685953 C22.3525854,28.6927819 21.9864933,28.9346486 21.522024,29.3974201 L21.2704364,29.1845774 L23.9556496,26 L24.2072372,26.2112302 C23.8250176,26.773167 23.6605181,27.223039 23.7145449,27.5632647 C23.7677653,27.9026842 24.1499849,28.3719055 24.8603971,28.9709286 L32,34.9885706 L31.8048584,35.2199564 L19.3093438,34.9506782 L24.5886503,39.4018306 C25.330511,40.0258465 25.9046467,40.3249549 26.3118637,40.2983496 C26.5763532,40.2798065 26.9416389,40.0484208 27.407721,39.6025799 L27.6601149,39.8138101 L24.9740954,43 L24.7225078,42.7871574 Z" id="Fill-69" fill="#FFFFFF" opacity="0.5"></path>
                <path d="M32.0572949,18.6369409 C32.6971977,18.371781 33.0555106,18.2093131 33.1314174,18.1495372 C33.3289384,17.9954992 33.4374933,17.8498912 33.4570822,17.7127131 C33.4766711,17.5763013 33.4554498,17.4176652 33.3942346,17.237571 L33.6970457,17 L36.2248249,19.6416364 L35.9081383,19.8891701 C35.0674497,19.482234 34.3606184,19.2423639 33.7860118,19.1703262 C32.7641263,19.0561388 31.8173314,19.3396913 30.9464433,20.0209837 C30.0616798,20.7137715 29.5629801,21.637233 29.4519765,22.792901 C29.3401568,23.9485691 29.9261902,25.2490788 31.2092605,26.6951966 C32.2686914,27.8884162 33.4301475,28.5582132 34.6944452,28.705354 C35.9579267,28.8517284 37.0818375,28.540587 38.0653615,27.7711634 C38.2310506,27.6408825 38.41388,27.4730501 38.6122172,27.2684325 C38.8105544,27.0630485 38.9827731,26.8500009 39.1288734,26.6285234 C39.3672045,26.2714006 39.4937159,26.0246332 39.5092238,25.8874551 C39.5247316,25.750277 39.4692298,25.6107999 39.3419022,25.4674909 L37.5103438,23.4044548 C37.0663297,22.9032566 36.7145464,22.6511248 36.454994,22.6457603 C36.1954416,22.6411621 35.7987672,22.8220227 35.2649707,23.1891082 L35.0519419,22.9492381 L38.5673261,20.1972461 L38.7811711,20.4378825 C38.4579549,20.7260332 38.2783904,20.9559406 38.2408451,21.1283712 C38.1722841,21.410391 38.3249139,21.7629157 38.6987347,22.1844127 L40.961248,24.7325534 C41.0959214,24.8842924 40.8796278,25.3969859 40.3115508,26.2706342 C39.7434739,27.1435161 39.0937767,27.8661918 38.361643,28.4394277 C37.0149089,29.4931701 35.5514578,30.0135273 33.9712898,29.9997328 C32.2295136,29.9836393 30.7505547,29.2900852 29.534413,27.9198369 C28.4643715,26.7143556 27.9542449,25.3632662 28.0032171,23.8673351 C28.0546378,22.2196652 28.8186034,20.8179962 30.2959299,19.6615618 C30.8305425,19.2438966 31.4173921,18.9021009 32.0572949,18.6369409" id="Fill-71" fill="#FFFFFF" opacity="0.5"></path>
            </g>
        </g>
    </g>
</svg>