<?xml version="1.0" encoding="UTF-8"?>
<svg width="57px" height="51px" viewBox="0 0 57 51" version="1.1" xmlns="http://www.w3.org/2000/svg" xmlns:xlink="http://www.w3.org/1999/xlink">
    <!-- Generator: Sketch 62 (91390) - https://sketch.com -->
    <title>WhyDoYouDoWhatYouDo</title>
    <desc>Created with Sketch.</desc>
    <g id="Page-2" stroke="none" stroke-width="1" fill="none" fill-rule="evenodd">
        <path d="M26.256,10 L28.762,4.708 L31.31,10 L31.716,10 L36.854,0.2 L36.644,0.2 L32.332,8.404 L28.328,0.214 L26.648,0.214 L28.664,4.484 L26.872,8.194 L22.7,0.214 L20.74,0.214 L26.004,10 L26.256,10 Z M38.87,10 L38.884,5.128 L45.282,5.128 L45.282,10 L47.942,10 C47.774,9.804 47.522,9.552 47.2,9.258 C46.878,8.964 46.598,8.726 46.374,8.516 C45.912,8.11 45.464,7.48 45.464,6.934 L45.464,0.2 L42.174,0.2 C42.608,0.466 43.042,0.774 43.476,1.124 C43.91,1.488 44.316,1.922 44.708,2.44 C45.086,2.958 45.282,3.42 45.282,3.84 L45.282,4.946 L38.884,4.946 L38.884,0.2 L37.386,0.2 L37.386,10 L38.87,10 Z M52.52,10 L52.52,4.988 L56.916,0.2 L56.748,0.2 L52.422,4.876 L48.32,0.2 L46.388,0.2 L50.924,5.338 L50.924,10 L52.52,10 Z M5.284,20 C6.222,20 7.104,19.776 7.944,19.342 C8.784,18.908 9.47,18.306 9.988,17.55 C10.506,16.794 10.758,15.982 10.758,15.1 C10.758,14.05 10.254,12.986 9.47,12.202 C9.078,11.81 8.644,11.46 8.168,11.152 C7.202,10.536 6.11,10.2 5.172,10.2 L0.552,10.2 L1.574,10.382 L1.574,19.818 L0.664,20 L5.284,20 Z M5.27,19.818 L3.268,19.818 L3.268,10.382 C5.354,10.382 6.852,10.872 7.65,11.754 C8.448,12.65 8.77,13.7 8.77,15.114 C8.77,16.458 8.448,17.578 7.804,18.474 C7.16,19.37 6.32,19.818 5.27,19.818 Z M19.956,18.95 C21.09,18.04 21.762,16.892 21.958,15.492 C22.14,14.106 21.804,12.874 20.936,11.81 C20.068,10.746 18.92,10.158 17.492,10.046 C16.05,9.948 14.762,10.354 13.628,11.264 C12.494,12.174 11.822,13.336 11.64,14.722 C11.444,16.108 11.78,17.34 12.662,18.39 C13.544,19.454 14.692,20.042 16.12,20.154 C17.534,20.252 18.822,19.86 19.956,18.95 Z M12.732,18.25 C12.102,17.452 11.99,16.5 12.41,15.394 C12.83,14.288 13.642,13.336 14.846,12.524 C15.672,11.964 16.442,11.544 17.156,11.278 C18.57,10.732 19.956,10.844 20.782,11.852 C21.412,12.65 21.538,13.574 21.188,14.638 C20.838,15.716 20.082,16.696 18.948,17.606 C17.8,18.516 16.652,19.034 15.49,19.174 C14.328,19.314 13.404,19.006 12.732,18.25 Z M31.632,20 L31.632,14.988 L36.028,10.2 L35.86,10.2 L31.534,14.876 L27.432,10.2 L25.5,10.2 L30.036,15.338 L30.036,20 L31.632,20 Z M43.602,18.95 C44.736,18.04 45.408,16.892 45.604,15.492 C45.786,14.106 45.45,12.874 44.582,11.81 C43.714,10.746 42.566,10.158 41.138,10.046 C39.696,9.948 38.408,10.354 37.274,11.264 C36.14,12.174 35.468,13.336 35.286,14.722 C35.09,16.108 35.426,17.34 36.308,18.39 C37.19,19.454 38.338,20.042 39.766,20.154 C41.18,20.252 42.468,19.86 43.602,18.95 Z M36.378,18.25 C35.748,17.452 35.636,16.5 36.056,15.394 C36.476,14.288 37.288,13.336 38.492,12.524 C39.318,11.964 40.088,11.544 40.802,11.278 C42.216,10.732 43.602,10.844 44.428,11.852 C45.058,12.65 45.184,13.574 44.834,14.638 C44.484,15.716 43.728,16.696 42.594,17.606 C41.446,18.516 40.298,19.034 39.136,19.174 C37.974,19.314 37.05,19.006 36.378,18.25 Z M51.036,20.154 C52.45,20.14 53.654,19.678 54.634,18.754 C55.6,17.83 56.09,16.71 56.09,15.38 L56.09,10.2 L54.48,10.2 L54.48,15.38 C54.452,16.696 54.116,17.788 53.486,18.656 C52.856,19.524 52.03,19.958 51.036,19.972 C50.196,19.972 49.468,19.804 48.866,19.454 C47.648,18.782 47.088,17.634 46.976,16.206 C46.92,15.492 46.99,14.778 47.186,14.064 C47.564,12.622 48.474,11.166 49.748,10.2 L46.696,10.2 L46.696,15.38 C46.696,16.766 47.074,17.914 47.83,18.81 C48.586,19.72 49.65,20.168 51.036,20.154 Z M40.144,30 C41.082,30 41.964,29.776 42.804,29.342 C43.644,28.908 44.33,28.306 44.848,27.55 C45.366,26.794 45.618,25.982 45.618,25.1 C45.618,24.05 45.114,22.986 44.33,22.202 C43.938,21.81 43.504,21.46 43.028,21.152 C42.062,20.536 40.97,20.2 40.032,20.2 L35.412,20.2 L36.434,20.382 L36.434,29.818 L35.524,30 L40.144,30 Z M40.13,29.818 L38.128,29.818 L38.128,20.382 C40.214,20.382 41.712,20.872 42.51,21.754 C43.308,22.65 43.63,23.7 43.63,25.114 C43.63,26.458 43.308,27.578 42.664,28.474 C42.02,29.37 41.18,29.818 40.13,29.818 Z M54.816,28.95 C55.95,28.04 56.622,26.892 56.818,25.492 C57,24.106 56.664,22.874 55.796,21.81 C54.928,20.746 53.78,20.158 52.352,20.046 C50.91,19.948 49.622,20.354 48.488,21.264 C47.354,22.174 46.682,23.336 46.5,24.722 C46.304,26.108 46.64,27.34 47.522,28.39 C48.404,29.454 49.552,30.042 50.98,30.154 C52.394,30.252 53.682,29.86 54.816,28.95 Z M47.592,28.25 C46.962,27.452 46.85,26.5 47.27,25.394 C47.69,24.288 48.502,23.336 49.706,22.524 C50.532,21.964 51.302,21.544 52.016,21.278 C53.43,20.732 54.816,20.844 55.642,21.852 C56.272,22.65 56.398,23.574 56.048,24.638 C55.698,25.716 54.942,26.696 53.808,27.606 C52.66,28.516 51.512,29.034 50.35,29.174 C49.188,29.314 48.264,29.006 47.592,28.25 Z M15.966,40 L18.472,34.708 L21.02,40 L21.426,40 L26.564,30.2 L26.354,30.2 L22.042,38.404 L18.038,30.214 L16.358,30.214 L18.374,34.484 L16.582,38.194 L12.41,30.214 L10.45,30.214 L15.714,40 L15.966,40 Z M28.58,40 L28.594,35.128 L34.992,35.128 L34.992,40 L37.652,40 C37.484,39.804 37.232,39.552 36.91,39.258 C36.588,38.964 36.308,38.726 36.084,38.516 C35.622,38.11 35.174,37.48 35.174,36.934 L35.174,30.2 L31.884,30.2 C32.318,30.466 32.752,30.774 33.186,31.124 C33.62,31.488 34.026,31.922 34.418,32.44 C34.796,32.958 34.992,33.42 34.992,33.84 L34.992,34.946 L28.594,34.946 L28.594,30.2 L27.096,30.2 L27.096,40 L28.58,40 Z M42.79,40 C42.538,39.846 42.062,39.65 41.348,39.398 C39.92,38.908 39.08,38.474 39.374,37.872 L40.004,36.724 L44.778,36.738 L46.612,39.986 L48.446,39.986 L43.168,30.2 L41.222,30.2 C41.502,30.466 41.908,31.096 42.426,32.09 L37.932,40 L42.79,40 Z M44.68,36.556 L40.116,36.556 L42.496,32.244 L44.68,36.556 Z M52.674,40 L52.674,30.382 L53.542,30.382 C53.948,30.382 54.438,30.76 55.04,31.502 C55.628,32.244 56.216,33.196 56.79,34.33 L56.37,30.06 C56.076,30.158 55.782,30.214 55.474,30.2 L48.516,30.2 C48.25,30.214 47.942,30.158 47.592,30.06 L47.172,34.33 C47.62,33.35 48.166,32.44 48.796,31.614 C49.426,30.788 49.958,30.382 50.42,30.382 L51.288,30.382 L51.288,40 L52.674,40 Z M6.082,50 L6.082,44.988 L10.478,40.2 L10.31,40.2 L5.984,44.876 L1.882,40.2 L-0.05,40.2 L4.486,45.338 L4.486,50 L6.082,50 Z M18.052,48.95 C19.186,48.04 19.858,46.892 20.054,45.492 C20.236,44.106 19.9,42.874 19.032,41.81 C18.164,40.746 17.016,40.158 15.588,40.046 C14.146,39.948 12.858,40.354 11.724,41.264 C10.59,42.174 9.918,43.336 9.736,44.722 C9.54,46.108 9.876,47.34 10.758,48.39 C11.64,49.454 12.788,50.042 14.216,50.154 C15.63,50.252 16.918,49.86 18.052,48.95 Z M10.828,48.25 C10.198,47.452 10.086,46.5 10.506,45.394 C10.926,44.288 11.738,43.336 12.942,42.524 C13.768,41.964 14.538,41.544 15.252,41.278 C16.666,40.732 18.052,40.844 18.878,41.852 C19.508,42.65 19.634,43.574 19.284,44.638 C18.934,45.716 18.178,46.696 17.044,47.606 C15.896,48.516 14.748,49.034 13.586,49.174 C12.424,49.314 11.5,49.006 10.828,48.25 Z M25.486,50.154 C26.9,50.14 28.104,49.678 29.084,48.754 C30.05,47.83 30.54,46.71 30.54,45.38 L30.54,40.2 L28.93,40.2 L28.93,45.38 C28.902,46.696 28.566,47.788 27.936,48.656 C27.306,49.524 26.48,49.958 25.486,49.972 C24.646,49.972 23.918,49.804 23.316,49.454 C22.098,48.782 21.538,47.634 21.426,46.206 C21.37,45.492 21.44,44.778 21.636,44.064 C22.014,42.622 22.924,41.166 24.198,40.2 L21.146,40.2 L21.146,45.38 C21.146,46.766 21.524,47.914 22.28,48.81 C23.036,49.72 24.1,50.168 25.486,50.154 Z M40.004,50 C40.942,50 41.824,49.776 42.664,49.342 C43.504,48.908 44.19,48.306 44.708,47.55 C45.226,46.794 45.478,45.982 45.478,45.1 C45.478,44.05 44.974,42.986 44.19,42.202 C43.798,41.81 43.364,41.46 42.888,41.152 C41.922,40.536 40.83,40.2 39.892,40.2 L35.272,40.2 L36.294,40.382 L36.294,49.818 L35.384,50 L40.004,50 Z M39.99,49.818 L37.988,49.818 L37.988,40.382 C40.074,40.382 41.572,40.872 42.37,41.754 C43.168,42.65 43.49,43.7 43.49,45.114 C43.49,46.458 43.168,47.578 42.524,48.474 C41.88,49.37 41.04,49.818 39.99,49.818 Z M54.676,48.95 C55.81,48.04 56.482,46.892 56.678,45.492 C56.86,44.106 56.524,42.874 55.656,41.81 C54.788,40.746 53.64,40.158 52.212,40.046 C50.77,39.948 49.482,40.354 48.348,41.264 C47.214,42.174 46.542,43.336 46.36,44.722 C46.164,46.108 46.5,47.34 47.382,48.39 C48.264,49.454 49.412,50.042 50.84,50.154 C52.254,50.252 53.542,49.86 54.676,48.95 Z M47.452,48.25 C46.822,47.452 46.71,46.5 47.13,45.394 C47.55,44.288 48.362,43.336 49.566,42.524 C50.392,41.964 51.162,41.544 51.876,41.278 C53.29,40.732 54.676,40.844 55.502,41.852 C56.132,42.65 56.258,43.574 55.908,44.638 C55.558,45.716 54.802,46.696 53.668,47.606 C52.52,48.516 51.372,49.034 50.21,49.174 C49.048,49.314 48.124,49.006 47.452,48.25 Z" id="WhyDoYouDoWhatYouDo" fill="#FFFFFF" fill-rule="nonzero"></path>
    </g>
</svg>